<?xml version="1.0" encoding="UTF-8" standalone="no"?>
<!-- Created with Inkscape (http://www.inkscape.org/) -->

<svg
   xmlns:dc="http://purl.org/dc/elements/1.1/"
   xmlns:cc="http://creativecommons.org/ns#"
   xmlns:rdf="http://www.w3.org/1999/02/22-rdf-syntax-ns#"
   xmlns:svg="http://www.w3.org/2000/svg"
   xmlns="http://www.w3.org/2000/svg"
   xmlns:sodipodi="http://sodipodi.sourceforge.net/DTD/sodipodi-0.dtd"
   xmlns:inkscape="http://www.inkscape.org/namespaces/inkscape"
   version="1.1"
   id="svg4504"
   xml:space="preserve"
   width="365.9342"
   height="244.10876"
   viewBox="0 0 365.9342 244.10876"
   sodipodi:docname="Logo Coltrack Final Outlines.svg"
   inkscape:version="0.92.2 (5c3e80d, 2017-08-06)"><metadata
     id="metadata4510"><rdf:RDF><cc:Work
         rdf:about=""><dc:format>image/svg+xml</dc:format><dc:type
           rdf:resource="http://purl.org/dc/dcmitype/StillImage" /><dc:title></dc:title></cc:Work></rdf:RDF></metadata><defs
     id="defs4508"><clipPath
       clipPathUnits="userSpaceOnUse"
       id="clipPath4520"><path
         d="M 0,792 H 612 V 0 H 0 Z"
         id="path4518"
         inkscape:connector-curvature="0" /></clipPath></defs><sodipodi:namedview
     pagecolor="#ffffff"
     bordercolor="#666666"
     borderopacity="1"
     objecttolerance="10"
     gridtolerance="10"
     guidetolerance="10"
     inkscape:pageopacity="0"
     inkscape:pageshadow="2"
     inkscape:window-width="3840"
     inkscape:window-height="2035"
     id="namedview4506"
     showgrid="false"
     inkscape:zoom="1.6363636"
     inkscape:cx="202.51456"
     inkscape:cy="124.644"
     inkscape:window-x="-13"
     inkscape:window-y="-13"
     inkscape:window-maximized="1"
     inkscape:current-layer="g4512"
     fit-margin-top="0"
     fit-margin-left="0"
     fit-margin-right="0"
     fit-margin-bottom="0" /><g
     id="g4512"
     inkscape:groupmode="layer"
     inkscape:label="Logo Coltrack Final Outlines"
     transform="matrix(1.3333333,0,0,-1.3333333,-222.90211,647.46476)"><g
       id="g4514"><g
         id="g4516"
         clip-path="url(#clipPath4520)"><g
           id="g4522"
           transform="translate(334.4834,479.0117)"><path
             d="m 0,0 4.11,-13.885 4.828,4.163 c 0,0 30.135,-35.464 -13.766,-57.258 l 1.251,-2.495 C 47.9,-39.693 14.766,-5.837 14.766,-5.837 l 4.992,4.048 z"
             style="fill:#808285;fill-opacity:1;fill-rule:evenodd;stroke:none"
             id="path4524"
             inkscape:connector-curvature="0" /></g><g
           id="g4526"
           transform="translate(320.5381,483.8691)"><path
             d="m 0,0 v 1.257 c -47.218,3.646 -60.703,-15.006 -60.703,-15.006 l -6.161,1.667 0.079,-12.097 14.865,7.358 -5.024,1.559 c 0,0 16.224,17.827 56.944,15.262"
             style="fill:#5e6366;fill-opacity:1;fill-rule:evenodd;stroke:none"
             id="path4528"
             inkscape:connector-curvature="0" /></g><g
           id="g4530"
           transform="translate(308.5088,404.9712)"><path
             d="M 0,0 -18.469,7.614 V 2.339 c 0,0 -42.849,-3.243 -42.114,41.162 h -1.412 C -66.311,-3.4 -18.469,-5.19 -18.469,-5.19 v -6.36 z"
             style="fill:#414142;fill-opacity:1;fill-rule:evenodd;stroke:none"
             id="path4532"
             inkscape:connector-curvature="0" /></g><g
           id="g4534"
           transform="translate(323.0488,481.9063)"><path
             d="M 0,0 C 0,2.021 2.247,3.658 5.021,3.658 7.79,3.658 10.034,2.021 10.034,0 10.034,-2.02 7.79,-3.652 5.021,-3.652 2.247,-3.652 0,-2.02 0,0"
             style="fill:#414142;fill-opacity:1;fill-rule:nonzero;stroke:none"
             id="path4536"
             inkscape:connector-curvature="0" /></g><g
           id="g4538"
           transform="translate(246.4609,452.8057)"><path
             d="M 0,0 C -0.624,1.563 0.472,3.475 2.461,4.279 4.441,5.076 6.565,4.465 7.189,2.908 7.822,1.345 6.724,-0.567 4.734,-1.373 2.757,-2.169 0.633,-1.557 0,0"
             style="fill:#808285;fill-opacity:1;fill-rule:nonzero;stroke:none"
             id="path4540"
             inkscape:connector-curvature="0" /></g><g
           id="g4542"
           transform="translate(312.7217,407.4526)"><path
             d="m 0,0 c 0,3.158 3.17,5.719 7.084,5.719 3.914,0 7.081,-2.561 7.081,-5.719 0,-3.158 -3.167,-5.722 -7.081,-5.722 C 3.17,-5.722 0,-3.158 0,0"
             style="fill:#5e6366;fill-opacity:1;fill-rule:nonzero;stroke:none"
             id="path4544"
             inkscape:connector-curvature="0" /></g><g
           id="g4546"
           transform="translate(265.4717,445.4243)"><path
             d="M 0,0 C -1.453,13.833 12.278,26.604 30.674,28.544 49.069,30.473 65.156,20.827 66.612,7.002 68.065,-6.826 54.334,-19.604 35.938,-21.535 17.543,-23.467 1.453,-13.827 0,0 Z"
             style="fill:none;stroke:#636466;stroke-width:1.96000004;stroke-linecap:butt;stroke-linejoin:miter;stroke-miterlimit:3.86400008;stroke-dasharray:none;stroke-opacity:1"
             id="path4548"
             inkscape:connector-curvature="0" /></g><g
           id="g4550"
           transform="translate(284.9658,450.6582)"><path
             d="M 0,0 C -0.264,4.963 4.86,9.262 11.432,9.612 18.015,9.952 23.555,6.207 23.81,1.247 24.073,-3.713 18.952,-8.016 12.378,-8.36 5.798,-8.703 0.258,-4.963 0,0"
             style="fill:#00b3f0;fill-opacity:1;fill-rule:nonzero;stroke:none"
             id="path4552"
             inkscape:connector-curvature="0" /></g><text
           transform="matrix(1,0,0,-1,169.6777,307.8564)"
           style="font-variant:normal;font-weight:bold;font-stretch:normal;font-size:29.95910072px;font-family:Calibri;-inkscape-font-specification:Calibri-Bold;writing-mode:lr-tb;fill:#58595b;fill-opacity:1;fill-rule:nonzero;stroke:none"
           id="text4556"><tspan
             x="0 19.083946 34.153374 50.27137 58.270451 74.058899 84.065231 99.134659 106.5046 113.87454 127.74561 142.81503 158.90306 171.42596 178.79591 193.5957 200.36646 224.72321 240.75133 254.92198 262.29193"
             y="0"
             sodipodi:role="line"
             id="tspan4554">GeoInteligencia móvil</tspan></text>
<text
           transform="matrix(1,0,0,-1,164,334)"
           style="font-variant:normal;font-weight:bold;font-stretch:normal;font-size:82.34999847px;font-family:Calibri;-inkscape-font-specification:Calibri-Bold;writing-mode:lr-tb;fill:#414142;fill-opacity:1;fill-rule:nonzero;stroke:none"
           id="text4560"><tspan
             x="0 43.563148 87.867447 108.12555 136.701 164.12355 204.80444 239.22675"
             y="0"
             sodipodi:role="line"
             id="tspan4558">Coltrack</tspan></text>
</g></g></g></svg>