<?xml version="1.0" encoding="UTF-8" standalone="no"?>
<svg
   xmlns:dc="http://purl.org/dc/elements/1.1/"
   xmlns:cc="http://creativecommons.org/ns#"
   xmlns:rdf="http://www.w3.org/1999/02/22-rdf-syntax-ns#"
   xmlns:svg="http://www.w3.org/2000/svg"
   xmlns="http://www.w3.org/2000/svg"
   xmlns:sodipodi="http://sodipodi.sourceforge.net/DTD/sodipodi-0.dtd"
   xmlns:inkscape="http://www.inkscape.org/namespaces/inkscape"
   version="1.1"
   id="svg4504"
   xml:space="preserve"
   width="365.9342"
   height="244.10876"
   viewBox="0 0 365.9342 244.10876"
   sodipodi:docname="coltrack-logo.svg"
   inkscape:version="1.0.2-2 (e86c870879, 2021-01-15)"><metadata
     id="metadata4510"><rdf:RDF><cc:Work
         rdf:about=""><dc:format>image/svg+xml</dc:format><dc:type
           rdf:resource="http://purl.org/dc/dcmitype/StillImage" /><dc:title /></cc:Work></rdf:RDF></metadata><defs
     id="defs4508"><clipPath
   clipPathUnits="userSpaceOnUse"
   id="clipPath4520"><path
     d="M 0,792 H 612 V 0 H 0 Z"
     id="path4518"
     inkscape:connector-curvature="0" /></clipPath>

</defs><sodipodi:namedview
     pagecolor="#ffffff"
     bordercolor="#666666"
     borderopacity="1"
     objecttolerance="10"
     gridtolerance="10"
     guidetolerance="10"
     inkscape:pageopacity="0"
     inkscape:pageshadow="2"
     inkscape:window-width="1920"
     inkscape:window-height="991"
     id="namedview4506"
     showgrid="false"
     inkscape:zoom="1.6363636"
     inkscape:cx="202.51456"
     inkscape:cy="124.644"
     inkscape:window-x="-9"
     inkscape:window-y="1341"
     inkscape:window-maximized="1"
     inkscape:current-layer="g4512"
     fit-margin-top="0"
     fit-margin-left="0"
     fit-margin-right="0"
     fit-margin-bottom="0"
     inkscape:document-rotation="0" /><g
     id="g4512"
     inkscape:groupmode="layer"
     inkscape:label="Logo Coltrack Final Outlines"
     transform="matrix(1.3333333,0,0,-1.3333333,-222.90211,647.46476)"><g
       id="g1007"><g
         id="g4522"
         transform="translate(334.4834,479.0117)"><path
           d="m 0,0 4.11,-13.885 4.828,4.163 c 0,0 30.135,-35.464 -13.766,-57.258 l 1.251,-2.495 C 47.9,-39.693 14.766,-5.837 14.766,-5.837 l 4.992,4.048 z"
           style="fill:#808285;fill-opacity:1;fill-rule:evenodd;stroke:none"
           id="path4524"
           inkscape:connector-curvature="0" /></g><g
         id="g4526"
         transform="translate(320.5381,483.8691)"><path
           d="m 0,0 v 1.257 c -47.218,3.646 -60.703,-15.006 -60.703,-15.006 l -6.161,1.667 0.079,-12.097 14.865,7.358 -5.024,1.559 c 0,0 16.224,17.827 56.944,15.262"
           style="fill:#5e6366;fill-opacity:1;fill-rule:evenodd;stroke:none"
           id="path4528"
           inkscape:connector-curvature="0" /></g><g
         id="g4530"
         transform="translate(308.5088,404.9712)"><path
           d="M 0,0 -18.469,7.614 V 2.339 c 0,0 -42.849,-3.243 -42.114,41.162 h -1.412 C -66.311,-3.4 -18.469,-5.19 -18.469,-5.19 v -6.36 z"
           style="fill:#414142;fill-opacity:1;fill-rule:evenodd;stroke:none"
           id="path4532"
           inkscape:connector-curvature="0" /></g><g
         id="g4534"
         transform="translate(323.0488,481.9063)"><path
           d="M 0,0 C 0,2.021 2.247,3.658 5.021,3.658 7.79,3.658 10.034,2.021 10.034,0 10.034,-2.02 7.79,-3.652 5.021,-3.652 2.247,-3.652 0,-2.02 0,0"
           style="fill:#414142;fill-opacity:1;fill-rule:nonzero;stroke:none"
           id="path4536"
           inkscape:connector-curvature="0" /></g><g
         id="g4538"
         transform="translate(246.4609,452.8057)"><path
           d="M 0,0 C -0.624,1.563 0.472,3.475 2.461,4.279 4.441,5.076 6.565,4.465 7.189,2.908 7.822,1.345 6.724,-0.567 4.734,-1.373 2.757,-2.169 0.633,-1.557 0,0"
           style="fill:#808285;fill-opacity:1;fill-rule:nonzero;stroke:none"
           id="path4540"
           inkscape:connector-curvature="0" /></g><g
         id="g4542"
         transform="translate(312.7217,407.4526)"><path
           d="m 0,0 c 0,3.158 3.17,5.719 7.084,5.719 3.914,0 7.081,-2.561 7.081,-5.719 0,-3.158 -3.167,-5.722 -7.081,-5.722 C 3.17,-5.722 0,-3.158 0,0"
           style="fill:#5e6366;fill-opacity:1;fill-rule:nonzero;stroke:none"
           id="path4544"
           inkscape:connector-curvature="0" /></g><g
         id="g4546"
         transform="translate(265.4717,445.4243)"><path
           d="M 0,0 C -1.453,13.833 12.278,26.604 30.674,28.544 49.069,30.473 65.156,20.827 66.612,7.002 68.065,-6.826 54.334,-19.604 35.938,-21.535 17.543,-23.467 1.453,-13.827 0,0 Z"
           style="fill:none;stroke:#636466;stroke-width:1.96;stroke-linecap:butt;stroke-linejoin:miter;stroke-miterlimit:3.864;stroke-dasharray:none;stroke-opacity:1"
           id="path4548"
           inkscape:connector-curvature="0" /></g><g
         id="g4550"
         transform="translate(284.9658,450.6582)"><path
           d="M 0,0 C -0.264,4.963 4.86,9.262 11.432,9.612 18.015,9.952 23.555,6.207 23.81,1.247 24.073,-3.713 18.952,-8.016 12.378,-8.36 5.798,-8.703 0.258,-4.963 0,0"
           style="fill:#00b3f0;fill-opacity:1;fill-rule:nonzero;stroke:none"
           id="path4552"
           inkscape:connector-curvature="0" /></g><g
         aria-label="GeoInteligencia móvil"
         transform="scale(1,-1)"
         id="text4556"
         style="font-variant:normal;font-weight:bold;font-stretch:normal;font-size:29.9591px;font-family:Calibri;-inkscape-font-specification:Calibri-Bold;writing-mode:lr-tb;fill:#58595b;fill-opacity:1;fill-rule:nonzero;stroke:none"><path
           d="m 186.92467,-323.84533 q 0,0.42423 -0.0439,0.73142 -0.0293,0.3072 -0.1024,0.49737 -0.0585,0.17554 -0.16091,0.24869 -0.0878,0.0731 -0.21943,0.0731 -0.19017,0 -0.61439,-0.26331 -0.42423,-0.26332 -1.1264,-0.57051 -0.70216,-0.3072 -1.68227,-0.57051 -0.96548,-0.26332 -2.25278,-0.26332 -1.37508,0 -2.48684,0.48274 -1.11177,0.46811 -1.9017,1.34582 -0.78994,0.86308 -1.21417,2.09187 -0.42422,1.21416 -0.42422,2.69164 0,1.62376 0.42422,2.86718 0.43886,1.22879 1.21417,2.06261 0.77531,0.83383 1.85781,1.25805 1.09714,0.42423 2.4137,0.42423 0.64365,0 1.27268,-0.14629 0.62902,-0.14628 1.17027,-0.43885 v -4.38854 h -3.58397 q -0.26331,0 -0.4096,-0.32183 -0.14628,-0.33645 -0.14628,-1.12639 0,-0.4096 0.0293,-0.68754 0.0439,-0.27794 0.11703,-0.43885 0.0731,-0.17554 0.17554,-0.24869 0.1024,-0.0878 0.23406,-0.0878 h 6.39264 q 0.23405,0 0.4096,0.0878 0.19017,0.0731 0.32182,0.23406 0.14629,0.16091 0.21943,0.39497 0.0731,0.21943 0.0731,0.51199 v 7.53367 q 0,0.43885 -0.16091,0.7753 -0.14629,0.32183 -0.62903,0.512 -0.46811,0.19017 -1.17027,0.39497 -0.70217,0.2048 -1.46285,0.35108 -0.74605,0.14629 -1.52136,0.21943 -0.76068,0.0731 -1.53599,0.0731 -2.26741,0 -4.06671,-0.64365 -1.78468,-0.65828 -3.0281,-1.88707 -1.24342,-1.24342 -1.9017,-3.01347 -0.65828,-1.78467 -0.65828,-4.03745 0,-2.32593 0.70217,-4.16912 0.70216,-1.85781 1.98947,-3.14512 1.28731,-1.30193 3.10123,-1.98947 1.82856,-0.68754 4.06672,-0.68754 1.22879,0 2.23815,0.17554 1.00937,0.16092 1.75542,0.4096 0.76068,0.23406 1.25805,0.512 0.49737,0.27794 0.68754,0.48274 0.2048,0.2048 0.29257,0.58514 0.0878,0.36571 0.0878,1.09713 z"
           id="path912" /><path
           d="m 202.65869,-315.25842 q 0,0.67291 -0.3072,0.99474 -0.29257,0.32182 -0.8192,0.32182 h -7.94325 q 0,0.83383 0.19017,1.52136 0.2048,0.67291 0.62902,1.15565 0.43885,0.46811 1.11176,0.7168 0.68754,0.24868 1.63839,0.24868 0.96548,0 1.6969,-0.13166 0.73143,-0.14628 1.25805,-0.30719 0.54126,-0.17554 0.89234,-0.3072 0.35108,-0.14629 0.57051,-0.14629 0.13166,0 0.21943,0.0585 0.0878,0.0439 0.14628,0.17554 0.0585,0.13166 0.0731,0.38034 0.0293,0.23406 0.0293,0.59977 0,0.32182 -0.0146,0.55588 -0.0146,0.21943 -0.0439,0.38034 -0.0293,0.16091 -0.0878,0.27794 -0.0585,0.1024 -0.16092,0.2048 -0.0878,0.1024 -0.51199,0.27794 -0.42423,0.17554 -1.08251,0.35108 -0.65828,0.16092 -1.50673,0.27794 -0.84845,0.13166 -1.81393,0.13166 -1.74079,0 -3.05735,-0.43885 -1.30194,-0.43886 -2.17964,-1.33119 -0.87771,-0.89234 -1.31657,-2.25279 -0.42422,-1.36045 -0.42422,-3.189 0,-1.74079 0.45348,-3.1305 0.45348,-1.40433 1.31656,-2.36981 0.86308,-0.98011 2.09187,-1.4921 1.24342,-0.512 2.79404,-0.512 1.63839,0 2.79404,0.48274 1.17028,0.48274 1.91633,1.34582 0.74605,0.84845 1.09713,2.01873 0.35109,1.17028 0.35109,2.54535 z m -3.56935,-1.05325 q 0.0439,-1.55062 -0.62902,-2.42832 -0.65828,-0.89234 -2.04799,-0.89234 -0.70217,0 -1.22879,0.26331 -0.512,0.26331 -0.86308,0.7168 -0.33645,0.43885 -0.52662,1.05325 -0.17555,0.59976 -0.2048,1.2873 z"
           id="path914" /><path
           d="m 218.86913,-315.00974 q 0,1.66765 -0.43885,3.04273 -0.43885,1.37507 -1.33119,2.36981 -0.89234,0.99473 -2.23816,1.53599 -1.34581,0.54125 -3.14512,0.54125 -1.74078,0 -3.02809,-0.48274 -1.2873,-0.48274 -2.13576,-1.40433 -0.84845,-0.9216 -1.25804,-2.26741 -0.4096,-1.34582 -0.4096,-3.07198 0,-1.66765 0.43885,-3.04272 0.45349,-1.38971 1.34582,-2.36982 0.89234,-0.99473 2.22353,-1.53598 1.34582,-0.54126 3.14512,-0.54126 1.75542,0 3.04272,0.48274 1.28731,0.46811 2.12113,1.38971 0.84845,0.92159 1.25805,2.26741 0.40959,1.34582 0.40959,3.0866 z m -3.78877,0.14629 q 0,-0.96548 -0.16091,-1.77005 -0.14629,-0.81919 -0.512,-1.41896 -0.36571,-0.59976 -0.98011,-0.93622 -0.59976,-0.33645 -1.52136,-0.33645 -0.81919,0 -1.43359,0.30719 -0.61439,0.29257 -1.00936,0.87771 -0.39497,0.57051 -0.59977,1.38971 -0.19017,0.80456 -0.19017,1.84318 0,0.96548 0.16092,1.78468 0.16091,0.80456 0.51199,1.40433 0.36571,0.59977 0.98011,0.93622 0.61439,0.32183 1.52136,0.32183 0.83382,0 1.44822,-0.29257 0.61439,-0.3072 1.00936,-0.87771 0.39497,-0.57051 0.58514,-1.37508 0.19017,-0.81919 0.19017,-1.85781 z"
           id="path916" /><path
           d="m 225.8736,-308.38304 q 0,0.14629 -0.1024,0.26331 -0.0878,0.11703 -0.3072,0.19017 -0.21943,0.0731 -0.58514,0.11703 -0.36571,0.0439 -0.93622,0.0439 -0.55588,0 -0.93622,-0.0439 -0.36572,-0.0439 -0.58514,-0.11703 -0.21943,-0.0731 -0.32183,-0.19017 -0.0878,-0.11702 -0.0878,-0.26331 v -17.87599 q 0,-0.14628 0.0878,-0.26331 0.1024,-0.11703 0.32183,-0.19017 0.23405,-0.0731 0.59976,-0.11703 0.36572,-0.0439 0.9216,-0.0439 0.57051,0 0.93622,0.0439 0.36571,0.0439 0.58514,0.11703 0.21943,0.0731 0.3072,0.19017 0.1024,0.11703 0.1024,0.26331 z"
           id="path918" /><path
           d="m 242.25479,-308.35378 q 0,0.14628 -0.0878,0.26331 -0.0878,0.1024 -0.29257,0.17554 -0.2048,0.0731 -0.57051,0.1024 -0.35108,0.0439 -0.87771,0.0439 -0.54125,0 -0.90696,-0.0439 -0.35109,-0.0293 -0.55588,-0.1024 -0.2048,-0.0731 -0.29257,-0.17554 -0.0878,-0.11703 -0.0878,-0.26331 v -7.44589 q 0,-0.95085 -0.14629,-1.49211 -0.13165,-0.54125 -0.39497,-0.92159 -0.26331,-0.39497 -0.68753,-0.59977 -0.4096,-0.21942 -0.96548,-0.21942 -0.70217,0 -1.41897,0.51199 -0.71679,0.512 -1.4921,1.49211 v 8.67468 q 0,0.14628 -0.0878,0.26331 -0.0878,0.1024 -0.3072,0.17554 -0.2048,0.0731 -0.55588,0.1024 -0.35108,0.0439 -0.89234,0.0439 -0.54125,0 -0.89233,-0.0439 -0.35109,-0.0293 -0.57051,-0.1024 -0.2048,-0.0731 -0.29257,-0.17554 -0.0878,-0.11703 -0.0878,-0.26331 v -13.0486 q 0,-0.14628 0.0731,-0.24868 0.0731,-0.11703 0.26331,-0.19017 0.19017,-0.0731 0.48274,-0.1024 0.3072,-0.0439 0.76068,-0.0439 0.46811,0 0.77531,0.0439 0.3072,0.0293 0.46811,0.1024 0.17554,0.0731 0.24869,0.19017 0.0731,0.1024 0.0731,0.24868 v 1.50674 q 1.0825,-1.17028 2.19427,-1.75542 1.12639,-0.58514 2.34055,-0.58514 1.33119,0 2.23816,0.43886 0.92159,0.43885 1.47747,1.19953 0.57051,0.74605 0.8192,1.75542 0.24868,1.00936 0.24868,2.42832 z"
           id="path920" /><path
           d="m 253.30362,-309.64109 q 0,0.64365 -0.0878,0.99474 -0.0731,0.33645 -0.2048,0.48274 -0.13166,0.13165 -0.39497,0.24868 -0.24868,0.1024 -0.59976,0.17554 -0.33646,0.0878 -0.74606,0.13166 -0.39497,0.0439 -0.80456,0.0439 -1.09714,0 -1.9017,-0.27794 -0.80457,-0.27794 -1.33119,-0.84845 -0.52663,-0.58514 -0.77531,-1.46284 -0.24869,-0.87771 -0.24869,-2.07725 v -6.68521 h -1.56524 q -0.27794,0 -0.42423,-0.33645 -0.14628,-0.35108 -0.14628,-1.15565 0,-0.42423 0.0292,-0.71679 0.0439,-0.29257 0.11703,-0.45349 0.0731,-0.17554 0.17554,-0.24868 0.11703,-0.0731 0.26332,-0.0731 h 1.55061 v -2.91107 q 0,-0.14628 0.0731,-0.26331 0.0878,-0.11703 0.29257,-0.19017 0.21942,-0.0878 0.57051,-0.11703 0.36571,-0.0439 0.89233,-0.0439 0.54126,0 0.89234,0.0439 0.36571,0.0293 0.57051,0.11703 0.2048,0.0731 0.29257,0.19017 0.0878,0.11703 0.0878,0.26331 v 2.91107 h 2.83792 q 0.14629,0 0.24869,0.0731 0.11702,0.0731 0.19017,0.24868 0.0731,0.16092 0.10239,0.45349 0.0439,0.29256 0.0439,0.71679 0,0.80457 -0.14628,1.15565 -0.14629,0.33645 -0.42423,0.33645 h -2.85255 v 6.12933 q 0,1.06788 0.33645,1.60913 0.33646,0.52663 1.19954,0.52663 0.29257,0 0.52662,-0.0439 0.23406,-0.0585 0.4096,-0.11703 0.19017,-0.0731 0.3072,-0.11702 0.13165,-0.0585 0.23405,-0.0585 0.0878,0 0.16092,0.0585 0.0878,0.0439 0.13165,0.2048 0.0439,0.14628 0.0731,0.40959 0.0439,0.26332 0.0439,0.67291 z"
           id="path922" /><path
           d="m 267.63998,-315.25842 q 0,0.67291 -0.3072,0.99474 -0.29257,0.32182 -0.81919,0.32182 h -7.94326 q 0,0.83383 0.19017,1.52136 0.2048,0.67291 0.62902,1.15565 0.43886,0.46811 1.11177,0.7168 0.68753,0.24868 1.63839,0.24868 0.96547,0 1.6969,-0.13166 0.73142,-0.14628 1.25805,-0.30719 0.54125,-0.17554 0.89233,-0.3072 0.35109,-0.14629 0.57051,-0.14629 0.13166,0 0.21943,0.0585 0.0878,0.0439 0.14628,0.17554 0.0585,0.13166 0.0731,0.38034 0.0292,0.23406 0.0292,0.59977 0,0.32182 -0.0146,0.55588 -0.0146,0.21943 -0.0439,0.38034 -0.0293,0.16091 -0.0878,0.27794 -0.0585,0.1024 -0.16091,0.2048 -0.0878,0.1024 -0.512,0.27794 -0.42423,0.17554 -1.08251,0.35108 -0.65828,0.16092 -1.50673,0.27794 -0.84845,0.13166 -1.81393,0.13166 -1.74079,0 -3.05735,-0.43885 -1.30193,-0.43886 -2.17964,-1.33119 -0.87771,-0.89234 -1.31656,-2.25279 -0.42423,-1.36045 -0.42423,-3.189 0,-1.74079 0.45348,-3.1305 0.45349,-1.40433 1.31657,-2.36981 0.86308,-0.98011 2.09187,-1.4921 1.24342,-0.512 2.79403,-0.512 1.63839,0 2.79404,0.48274 1.17028,0.48274 1.91633,1.34582 0.74605,0.84845 1.09714,2.01873 0.35108,1.17028 0.35108,2.54535 z m -3.56935,-1.05325 q 0.0439,-1.55062 -0.62902,-2.42832 -0.65828,-0.89234 -2.04799,-0.89234 -0.70216,0 -1.22879,0.26331 -0.51199,0.26331 -0.86308,0.7168 -0.33645,0.43885 -0.52662,1.05325 -0.17554,0.59976 -0.2048,1.2873 z"
           id="path924" /><path
           d="m 274.34191,-308.35378 q 0,0.14628 -0.0878,0.26331 -0.0878,0.1024 -0.3072,0.17554 -0.2048,0.0731 -0.55588,0.1024 -0.35109,0.0439 -0.89234,0.0439 -0.54125,0 -0.89234,-0.0439 -0.35108,-0.0293 -0.57051,-0.1024 -0.20479,-0.0731 -0.29256,-0.17554 -0.0878,-0.11703 -0.0878,-0.26331 v -19.23644 q 0,-0.14628 0.0878,-0.26331 0.0878,-0.11703 0.29256,-0.19017 0.21943,-0.0878 0.57051,-0.13166 0.35109,-0.0439 0.89234,-0.0439 0.54125,0 0.89234,0.0439 0.35108,0.0439 0.55588,0.13166 0.21943,0.0731 0.3072,0.19017 0.0878,0.11703 0.0878,0.26331 z"
           id="path926" /><path
           d="m 281.71187,-308.35378 q 0,0.14628 -0.0878,0.26331 -0.0878,0.1024 -0.3072,0.17554 -0.20479,0.0731 -0.55588,0.1024 -0.35108,0.0439 -0.89233,0.0439 -0.54126,0 -0.89234,-0.0439 -0.35108,-0.0293 -0.57051,-0.1024 -0.2048,-0.0731 -0.29257,-0.17554 -0.0878,-0.11703 -0.0878,-0.26331 v -13.01934 q 0,-0.14628 0.0878,-0.24868 0.0878,-0.11703 0.29257,-0.19017 0.21943,-0.0878 0.57051,-0.13166 0.35108,-0.0439 0.89234,-0.0439 0.54125,0 0.89233,0.0439 0.35109,0.0439 0.55588,0.13166 0.21943,0.0731 0.3072,0.19017 0.0878,0.1024 0.0878,0.24868 z m 0.27794,-17.46639 q 0,1.11176 -0.45348,1.53599 -0.45348,0.42422 -1.68227,0.42422 -1.24342,0 -1.68228,-0.40959 -0.42422,-0.4096 -0.42422,-1.47748 0,-1.11176 0.43885,-1.53599 0.45348,-0.43885 1.6969,-0.43885 1.2288,0 1.66765,0.42422 0.43885,0.4096 0.43885,1.47748 z"
           id="path928" /><path
           d="m 297.15672,-320.49541 q 0,0.70217 -0.16091,1.03862 -0.16092,0.33646 -0.39497,0.33646 h -1.53599 q 0.32183,0.35108 0.45348,0.80456 0.14629,0.43886 0.14629,0.92159 0,1.14103 -0.38034,2.03336 -0.38034,0.87771 -1.09714,1.49211 -0.70216,0.59976 -1.71153,0.92159 -0.99473,0.3072 -2.22353,0.3072 -0.62902,0 -1.19953,-0.14629 -0.57051,-0.16091 -0.87771,-0.36571 -0.17554,0.19017 -0.32182,0.45348 -0.13166,0.26331 -0.13166,0.58514 0,0.42423 0.36571,0.70217 0.38034,0.26331 1.05325,0.29257 l 3.17438,0.11702 q 1.11176,0.0439 1.97484,0.32183 0.87771,0.26331 1.46285,0.76068 0.59976,0.48274 0.90696,1.17028 0.32183,0.68754 0.32183,1.56524 0,0.96548 -0.42423,1.81393 -0.42422,0.86308 -1.27267,1.49211 -0.84845,0.62902 -2.13576,0.99473 -1.27268,0.36572 -2.98421,0.36572 -1.66764,0 -2.85255,-0.26332 -1.17028,-0.26331 -1.93096,-0.73142 -0.74605,-0.46811 -1.09713,-1.12639 -0.33646,-0.64365 -0.33646,-1.41896 0,-0.48274 0.11703,-0.9216 0.13166,-0.43885 0.36571,-0.84845 0.24869,-0.39497 0.59977,-0.76068 0.35108,-0.36571 0.80457,-0.70216 -0.62903,-0.33646 -0.98011,-0.90697 -0.33646,-0.58514 -0.33646,-1.27268 0,-0.86308 0.39497,-1.56524 0.39497,-0.7168 1.024,-1.28731 -0.512,-0.51199 -0.8192,-1.22879 -0.3072,-0.71679 -0.3072,-1.78467 0,-1.14102 0.39497,-2.03336 0.4096,-0.90696 1.12639,-1.52136 0.7168,-0.62902 1.71154,-0.95085 0.99473,-0.33645 2.19427,-0.33645 0.61439,0 1.17027,0.0731 0.57051,0.0731 1.05325,0.2048 h 4.13986 q 0.24868,0 0.39497,0.32182 0.16091,0.32183 0.16091,1.08251 z m -4.72499,3.08661 q 0,-1.05325 -0.58514,-1.63839 -0.58514,-0.58514 -1.65302,-0.58514 -0.54125,0 -0.95085,0.19017 -0.4096,0.17554 -0.68754,0.49737 -0.26331,0.30719 -0.39497,0.73142 -0.13165,0.4096 -0.13165,0.86308 0,0.99474 0.58514,1.57987 0.58513,0.57051 1.62376,0.57051 0.55588,0 0.96547,-0.17554 0.4096,-0.17554 0.67291,-0.48274 0.27794,-0.30719 0.4096,-0.70216 0.14629,-0.4096 0.14629,-0.84845 z m 0.86308,10.41546 q 0,-0.65828 -0.52663,-1.00936 -0.52662,-0.35108 -1.44822,-0.38034 l -2.61849,-0.0731 q -0.38034,0.27794 -0.6144,0.54125 -0.21943,0.24869 -0.36571,0.48274 -0.13166,0.23406 -0.17554,0.45348 -0.0439,0.21943 -0.0439,0.45349 0,0.73142 0.73143,1.11176 0.74605,0.38034 2.09187,0.38034 0.83382,0 1.40433,-0.17554 0.57051,-0.16092 0.92159,-0.43886 0.35109,-0.27794 0.49737,-0.62902 0.14629,-0.33646 0.14629,-0.7168 z"
           id="path930" /><path
           d="m 311.32035,-315.25842 q 0,0.67291 -0.30719,0.99474 -0.29257,0.32182 -0.8192,0.32182 h -7.94326 q 0,0.83383 0.19017,1.52136 0.2048,0.67291 0.62903,1.15565 0.43885,0.46811 1.11176,0.7168 0.68754,0.24868 1.63839,0.24868 0.96548,0 1.6969,-0.13166 0.73143,-0.14628 1.25805,-0.30719 0.54125,-0.17554 0.89234,-0.3072 0.35108,-0.14629 0.57051,-0.14629 0.13165,0 0.21942,0.0585 0.0878,0.0439 0.14629,0.17554 0.0585,0.13166 0.0731,0.38034 0.0293,0.23406 0.0293,0.59977 0,0.32182 -0.0146,0.55588 -0.0146,0.21943 -0.0439,0.38034 -0.0292,0.16091 -0.0878,0.27794 -0.0585,0.1024 -0.16091,0.2048 -0.0878,0.1024 -0.512,0.27794 -0.42422,0.17554 -1.0825,0.35108 -0.65828,0.16092 -1.50674,0.27794 -0.84845,0.13166 -1.81393,0.13166 -1.74078,0 -3.05734,-0.43885 -1.30194,-0.43886 -2.17965,-1.33119 -0.8777,-0.89234 -1.31656,-2.25279 -0.42422,-1.36045 -0.42422,-3.189 0,-1.74079 0.45348,-3.1305 0.45348,-1.40433 1.31656,-2.36981 0.86308,-0.98011 2.09187,-1.4921 1.24342,-0.512 2.79404,-0.512 1.63839,0 2.79404,0.48274 1.17027,0.48274 1.91632,1.34582 0.74606,0.84845 1.09714,2.01873 0.35108,1.17028 0.35108,2.54535 z m -3.56934,-1.05325 q 0.0439,-1.55062 -0.62903,-2.42832 -0.65828,-0.89234 -2.04798,-0.89234 -0.70217,0 -1.22879,0.26331 -0.512,0.26331 -0.86308,0.7168 -0.33646,0.43885 -0.52663,1.05325 -0.17554,0.59976 -0.2048,1.2873 z"
           id="path932" /><path
           d="m 326.79938,-308.35378 q 0,0.14628 -0.0878,0.26331 -0.0878,0.1024 -0.29257,0.17554 -0.2048,0.0731 -0.57051,0.1024 -0.35109,0.0439 -0.87771,0.0439 -0.54125,0 -0.90697,-0.0439 -0.35108,-0.0293 -0.55588,-0.1024 -0.2048,-0.0731 -0.29257,-0.17554 -0.0878,-0.11703 -0.0878,-0.26331 v -7.44589 q 0,-0.95085 -0.14628,-1.49211 -0.13166,-0.54125 -0.39497,-0.92159 -0.26331,-0.39497 -0.68754,-0.59977 -0.4096,-0.21942 -0.96548,-0.21942 -0.70216,0 -1.41896,0.51199 -0.71679,0.512 -1.4921,1.49211 v 8.67468 q 0,0.14628 -0.0878,0.26331 -0.0878,0.1024 -0.3072,0.17554 -0.2048,0.0731 -0.55588,0.1024 -0.35109,0.0439 -0.89234,0.0439 -0.54125,0 -0.89234,-0.0439 -0.35108,-0.0293 -0.57051,-0.1024 -0.20479,-0.0731 -0.29257,-0.17554 -0.0878,-0.11703 -0.0878,-0.26331 v -13.0486 q 0,-0.14628 0.0731,-0.24868 0.0731,-0.11703 0.26331,-0.19017 0.19017,-0.0731 0.48274,-0.1024 0.3072,-0.0439 0.76068,-0.0439 0.46811,0 0.77531,0.0439 0.30719,0.0293 0.46811,0.1024 0.17554,0.0731 0.24868,0.19017 0.0731,0.1024 0.0731,0.24868 v 1.50674 q 1.08251,-1.17028 2.19427,-1.75542 1.1264,-0.58514 2.34056,-0.58514 1.33119,0 2.23815,0.43886 0.9216,0.43885 1.47748,1.19953 0.57051,0.74605 0.81919,1.75542 0.24869,1.00936 0.24869,2.42832 z"
           id="path934" /><path
           d="m 340.29815,-310.43103 q 0,0.38035 -0.0293,0.64366 -0.0146,0.24868 -0.0585,0.42422 -0.0293,0.17554 -0.0878,0.29257 -0.0439,0.1024 -0.21943,0.27794 -0.17554,0.16092 -0.59976,0.4096 -0.42423,0.23406 -0.96548,0.42423 -0.54126,0.19017 -1.18491,0.30719 -0.62902,0.11703 -1.30193,0.11703 -1.50673,0 -2.67701,-0.46811 -1.15565,-0.46811 -1.94559,-1.37508 -0.78994,-0.92159 -1.19953,-2.23815 -0.39497,-1.31656 -0.39497,-3.01347 0,-1.96021 0.48274,-3.37917 0.49737,-1.43359 1.37507,-2.36981 0.87771,-0.93622 2.07725,-1.38971 1.19953,-0.45348 2.63312,-0.45348 0.58514,0 1.14102,0.1024 0.57051,0.1024 1.05325,0.27794 0.49737,0.17554 0.87771,0.39497 0.39497,0.21943 0.55588,0.38034 0.16091,0.16091 0.21943,0.27794 0.0731,0.1024 0.1024,0.27794 0.0439,0.17554 0.0585,0.43886 0.0293,0.24868 0.0293,0.61439 0,0.84845 -0.14629,1.19954 -0.14628,0.33645 -0.38034,0.33645 -0.24868,0 -0.52662,-0.2048 -0.27794,-0.2048 -0.65828,-0.45348 -0.38034,-0.24869 -0.90697,-0.45348 -0.52662,-0.2048 -1.25805,-0.2048 -1.43359,0 -2.19427,1.11176 -0.76068,1.09714 -0.76068,3.23289 0,1.05325 0.19017,1.85782 0.19017,0.80456 0.55589,1.34582 0.38034,0.54125 0.93622,0.81919 0.57051,0.26331 1.31656,0.26331 0.76068,0 1.30193,-0.21942 0.55588,-0.23406 0.96548,-0.512 0.4096,-0.27794 0.68754,-0.49737 0.27794,-0.23405 0.46811,-0.23405 0.13166,0 0.21943,0.0731 0.0878,0.0731 0.13165,0.27794 0.0585,0.19017 0.0878,0.49737 0.0293,0.3072 0.0293,0.78993 z"
           id="path936" /><path
           d="m 346.63323,-308.35378 q 0,0.14628 -0.0878,0.26331 -0.0878,0.1024 -0.3072,0.17554 -0.2048,0.0731 -0.55588,0.1024 -0.35108,0.0439 -0.89234,0.0439 -0.54125,0 -0.89233,-0.0439 -0.35109,-0.0293 -0.57051,-0.1024 -0.2048,-0.0731 -0.29257,-0.17554 -0.0878,-0.11703 -0.0878,-0.26331 v -13.01934 q 0,-0.14628 0.0878,-0.24868 0.0878,-0.11703 0.29257,-0.19017 0.21942,-0.0878 0.57051,-0.13166 0.35108,-0.0439 0.89233,-0.0439 0.54126,0 0.89234,0.0439 0.35108,0.0439 0.55588,0.13166 0.21943,0.0731 0.3072,0.19017 0.0878,0.1024 0.0878,0.24868 z m 0.27794,-17.46639 q 0,1.11176 -0.45348,1.53599 -0.45349,0.42422 -1.68228,0.42422 -1.24342,0 -1.68227,-0.40959 -0.42423,-0.4096 -0.42423,-1.47748 0,-1.11176 0.43886,-1.53599 0.45348,-0.43885 1.6969,-0.43885 1.22879,0 1.66765,0.42422 0.43885,0.4096 0.43885,1.47748 z"
           id="path938" /><path
           d="m 361.43442,-308.3099 q 0,0.2048 -0.14628,0.32183 -0.14629,0.11703 -0.46811,0.16091 -0.3072,0.0585 -0.92159,0.0585 -0.65829,0 -0.96548,-0.0585 -0.29257,-0.0439 -0.42423,-0.16091 -0.11703,-0.11703 -0.11703,-0.32183 v -1.03862 q -0.80456,0.86308 -1.84318,1.34582 -1.024,0.48274 -2.28204,0.48274 -1.03863,0 -1.91633,-0.27794 -0.86308,-0.26331 -1.50674,-0.78994 -0.62902,-0.54125 -0.9801,-1.33119 -0.35109,-0.78994 -0.35109,-1.84319 0,-1.14102 0.43886,-1.97484 0.45348,-0.84845 1.33119,-1.3897 0.89233,-0.55588 2.2089,-0.8192 1.31656,-0.26331 3.05735,-0.26331 h 1.27267 v -0.78994 q 0,-0.61439 -0.13165,-1.06787 -0.11703,-0.46812 -0.4096,-0.77531 -0.27794,-0.3072 -0.76068,-0.45349 -0.46811,-0.14628 -1.17028,-0.14628 -0.92159,0 -1.65301,0.2048 -0.7168,0.2048 -1.27268,0.45348 -0.55588,0.24868 -0.93622,0.45348 -0.36572,0.2048 -0.59977,0.2048 -0.16091,0 -0.29257,-0.1024 -0.11703,-0.1024 -0.2048,-0.29257 -0.0731,-0.19017 -0.11703,-0.46811 -0.0439,-0.27794 -0.0439,-0.61439 0,-0.45349 0.0731,-0.7168 0.0731,-0.26331 0.27794,-0.46811 0.2048,-0.21943 0.7168,-0.46811 0.51199,-0.26331 1.19953,-0.48274 0.68754,-0.21943 1.4921,-0.35108 0.8192,-0.14629 1.68228,-0.14629 1.53599,0 2.61849,0.3072 1.09714,0.29257 1.79931,0.92159 0.70216,0.6144 1.02399,1.59451 0.32182,0.9801 0.32182,2.32592 z m -3.61323,-5.58807 h -1.40433 q -0.89234,0 -1.52136,0.13165 -0.62902,0.13166 -1.02399,0.39497 -0.39497,0.26332 -0.58514,0.64366 -0.17554,0.36571 -0.17554,0.84845 0,0.81919 0.51199,1.2873 0.52663,0.46811 1.44822,0.46811 0.77531,0 1.41896,-0.39497 0.65828,-0.39496 1.33119,-1.15564 z"
           id="path940" /><path
           d="m 392.64514,-308.35378 q 0,0.14628 -0.0878,0.26331 -0.0878,0.1024 -0.29257,0.17554 -0.2048,0.0731 -0.55588,0.1024 -0.35108,0.0439 -0.89234,0.0439 -0.55588,0 -0.90696,-0.0439 -0.35109,-0.0293 -0.57051,-0.1024 -0.2048,-0.0731 -0.29257,-0.17554 -0.0731,-0.11703 -0.0731,-0.26331 v -7.73846 q 0,-0.65828 -0.13166,-1.19954 -0.11703,-0.54125 -0.38034,-0.92159 -0.24868,-0.39497 -0.64365,-0.59977 -0.38034,-0.21942 -0.9216,-0.21942 -0.65828,0 -1.33119,0.51199 -0.67291,0.512 -1.46284,1.49211 v 8.67468 q 0,0.14628 -0.0878,0.26331 -0.0878,0.1024 -0.3072,0.17554 -0.2048,0.0731 -0.55588,0.1024 -0.35109,0.0439 -0.87771,0.0439 -0.54126,0 -0.89234,-0.0439 -0.35108,-0.0293 -0.57051,-0.1024 -0.2048,-0.0731 -0.29257,-0.17554 -0.0878,-0.11703 -0.0878,-0.26331 v -7.73846 q 0,-0.65828 -0.13166,-1.19954 -0.11702,-0.54125 -0.36571,-0.92159 -0.24868,-0.39497 -0.64365,-0.59977 -0.39497,-0.21942 -0.92159,-0.21942 -0.67291,0 -1.34582,0.51199 -0.67291,0.512 -1.44822,1.49211 v 8.67468 q 0,0.14628 -0.0878,0.26331 -0.0878,0.1024 -0.3072,0.17554 -0.2048,0.0731 -0.55588,0.1024 -0.35108,0.0439 -0.89234,0.0439 -0.54125,0 -0.89233,-0.0439 -0.35109,-0.0293 -0.57051,-0.1024 -0.2048,-0.0731 -0.29257,-0.17554 -0.0878,-0.11703 -0.0878,-0.26331 v -13.0486 q 0,-0.14628 0.0731,-0.24868 0.0731,-0.11703 0.26331,-0.19017 0.19017,-0.0731 0.48274,-0.1024 0.3072,-0.0439 0.76068,-0.0439 0.46811,0 0.77531,0.0439 0.3072,0.0293 0.46811,0.1024 0.17554,0.0731 0.24868,0.19017 0.0731,0.1024 0.0731,0.24868 v 1.50674 q 1.0825,-1.17028 2.15038,-1.75542 1.08251,-0.58514 2.25278,-0.58514 0.80457,0 1.44822,0.17554 0.64366,0.16092 1.14102,0.48274 0.512,0.3072 0.87771,0.74605 0.36571,0.43886 0.6144,0.98011 0.58514,-0.62902 1.14102,-1.0825 0.57051,-0.45349 1.11176,-0.73143 0.55588,-0.29257 1.09714,-0.42422 0.55588,-0.14629 1.12639,-0.14629 1.30193,0 2.19427,0.43886 0.89233,0.43885 1.43359,1.19953 0.55588,0.74605 0.78994,1.75542 0.23405,1.00936 0.23405,2.13575 z"
           id="path942" /><path
           d="m 409.43897,-315.00974 q 0,1.66765 -0.43885,3.04273 -0.43885,1.37507 -1.33119,2.36981 -0.89234,0.99473 -2.23816,1.53599 -1.34582,0.54125 -3.14512,0.54125 -1.74078,0 -3.02809,-0.48274 -1.2873,-0.48274 -2.13576,-1.40433 -0.84845,-0.9216 -1.25804,-2.26741 -0.4096,-1.34582 -0.4096,-3.07198 0,-1.66765 0.43885,-3.04272 0.45349,-1.38971 1.34582,-2.36982 0.89234,-0.99473 2.22353,-1.53598 1.34582,-0.54126 3.14512,-0.54126 1.75542,0 3.04272,0.48274 1.28731,0.46811 2.12113,1.38971 0.84845,0.92159 1.25805,2.26741 0.40959,1.34582 0.40959,3.0866 z m -3.78877,0.14629 q 0,-0.96548 -0.16091,-1.77005 -0.14629,-0.81919 -0.512,-1.41896 -0.36571,-0.59976 -0.98011,-0.93622 -0.59976,-0.33645 -1.52136,-0.33645 -0.81919,0 -1.43359,0.30719 -0.61439,0.29257 -1.00936,0.87771 -0.39497,0.57051 -0.59977,1.38971 -0.19017,0.80456 -0.19017,1.84318 0,0.96548 0.16092,1.78468 0.16091,0.80456 0.51199,1.40433 0.36571,0.59977 0.98011,0.93622 0.61439,0.32183 1.52136,0.32183 0.83382,0 1.44822,-0.29257 0.61439,-0.3072 1.00936,-0.87771 0.39497,-0.57051 0.58514,-1.37508 0.19017,-0.81919 0.19017,-1.85781 z m -2.48684,-12.94619 q 0.1024,-0.16092 0.24869,-0.27794 0.14628,-0.11703 0.36571,-0.17555 0.21942,-0.0731 0.55588,-0.1024 0.33645,-0.0293 0.81919,-0.0293 0.67291,0 1.05325,0.0585 0.39497,0.0585 0.55588,0.17554 0.17555,0.1024 0.16092,0.24869 -0.0146,0.14628 -0.14629,0.30719 l -2.83792,3.39381 q -0.11703,0.14628 -0.23406,0.24868 -0.11702,0.0878 -0.30719,0.14629 -0.17554,0.0585 -0.45349,0.0878 -0.27794,0.0293 -0.70216,0.0293 -0.512,0 -0.8192,-0.0439 -0.29257,-0.0439 -0.40959,-0.13166 -0.11703,-0.1024 -0.1024,-0.24868 0.0292,-0.14628 0.16091,-0.33646 z m -3.74489,5.9099 z"
           id="path944" /><path
           d="m 424.28217,-321.417 q 0,0.0731 -0.0146,0.17554 0,0.1024 -0.0293,0.23405 -0.0146,0.11703 -0.0585,0.27794 -0.0293,0.16092 -0.0878,0.36572 l -3.92042,11.80517 q -0.0731,0.24868 -0.2048,0.4096 -0.11703,0.14628 -0.4096,0.23405 -0.27794,0.0878 -0.77531,0.11703 -0.48274,0.0293 -1.27268,0.0293 -0.7753,0 -1.27267,-0.0439 -0.48274,-0.0293 -0.76068,-0.11703 -0.27794,-0.0878 -0.4096,-0.23405 -0.11703,-0.16092 -0.19017,-0.39497 l -3.92043,-11.80517 q -0.0878,-0.29257 -0.14628,-0.52663 -0.0439,-0.23405 -0.0585,-0.33645 0,-0.1024 0,-0.19017 0,-0.14629 0.0731,-0.24869 0.0878,-0.11703 0.29257,-0.19017 0.2048,-0.0731 0.55589,-0.1024 0.36571,-0.0292 0.90696,-0.0292 0.59977,0 0.96548,0.0439 0.36571,0.0293 0.57051,0.1024 0.21943,0.0585 0.3072,0.19017 0.0878,0.11703 0.14628,0.29257 l 2.96958,9.58165 0.0878,0.36571 0.0878,-0.36571 2.9257,-9.58165 q 0.0439,-0.17554 0.13165,-0.29257 0.1024,-0.13166 0.3072,-0.19017 0.2048,-0.0731 0.54125,-0.1024 0.35109,-0.0439 0.90697,-0.0439 0.54125,0 0.87771,0.0292 0.35108,0.0293 0.54125,0.1024 0.19017,0.0731 0.26331,0.19017 0.0731,0.1024 0.0731,0.24869 z"
           id="path946" /><path
           d="m 430.12923,-308.35378 q 0,0.14628 -0.0878,0.26331 -0.0878,0.1024 -0.3072,0.17554 -0.2048,0.0731 -0.55588,0.1024 -0.35108,0.0439 -0.89234,0.0439 -0.54125,0 -0.89233,-0.0439 -0.35109,-0.0293 -0.57051,-0.1024 -0.2048,-0.0731 -0.29257,-0.17554 -0.0878,-0.11703 -0.0878,-0.26331 v -13.01934 q 0,-0.14628 0.0878,-0.24868 0.0878,-0.11703 0.29257,-0.19017 0.21942,-0.0878 0.57051,-0.13166 0.35108,-0.0439 0.89233,-0.0439 0.54126,0 0.89234,0.0439 0.35108,0.0439 0.55588,0.13166 0.21943,0.0731 0.3072,0.19017 0.0878,0.1024 0.0878,0.24868 z m 0.27794,-17.46639 q 0,1.11176 -0.45348,1.53599 -0.45348,0.42422 -1.68227,0.42422 -1.24342,0 -1.68228,-0.40959 -0.42422,-0.4096 -0.42422,-1.47748 0,-1.11176 0.43885,-1.53599 0.45348,-0.43885 1.6969,-0.43885 1.22879,0 1.66765,0.42422 0.43885,0.4096 0.43885,1.47748 z"
           id="path948" /><path
           d="m 437.4992,-308.35378 q 0,0.14628 -0.0878,0.26331 -0.0878,0.1024 -0.30719,0.17554 -0.2048,0.0731 -0.55588,0.1024 -0.35109,0.0439 -0.89234,0.0439 -0.54125,0 -0.89234,-0.0439 -0.35108,-0.0293 -0.57051,-0.1024 -0.2048,-0.0731 -0.29257,-0.17554 -0.0878,-0.11703 -0.0878,-0.26331 v -19.23644 q 0,-0.14628 0.0878,-0.26331 0.0878,-0.11703 0.29257,-0.19017 0.21943,-0.0878 0.57051,-0.13166 0.35109,-0.0439 0.89234,-0.0439 0.54125,0 0.89234,0.0439 0.35108,0.0439 0.55588,0.13166 0.21942,0.0731 0.30719,0.19017 0.0878,0.11703 0.0878,0.26331 z"
           id="path950" /></g><g
         aria-label="Coltrack"
         transform="scale(1,-1)"
         id="text4560"
         style="font-variant:normal;font-weight:bold;font-stretch:normal;font-size:82.35px;font-family:Calibri;-inkscape-font-specification:Calibri-Bold;writing-mode:lr-tb;fill:#414142;fill-opacity:1;fill-rule:nonzero;stroke:none"><path
           d="m 205.65752,-341.88115 q 0,1.00525 -0.0804,1.72903 -0.0402,0.68357 -0.16084,1.20629 -0.12063,0.48252 -0.32168,0.84441 -0.20105,0.36189 -0.64336,0.84441 -0.44231,0.44231 -1.72903,1.16609 -1.24651,0.72378 -3.09617,1.40735 -1.80944,0.64336 -4.18183,1.08567 -2.33218,0.44231 -5.06646,0.44231 -5.34792,0 -9.65039,-1.64861 -4.30246,-1.64861 -7.31821,-4.90561 -3.01575,-3.29722 -4.62414,-8.20284 -1.6084,-4.90561 -1.6084,-11.41962 0,-6.63465 1.76924,-11.78152 1.76923,-5.14688 4.94582,-8.64514 3.17659,-3.49827 7.59968,-5.30772 4.46331,-1.80945 9.81123,-1.80945 2.17134,0 4.18184,0.36189 2.0105,0.36189 3.69932,0.96504 1.72902,0.56294 3.09616,1.32693 1.36714,0.76399 1.88987,1.32693 0.56294,0.52273 0.76399,0.88462 0.20105,0.36189 0.32168,0.92483 0.12063,0.56294 0.16084,1.32693 0.0804,0.76398 0.0804,1.88986 0,1.2063 -0.0804,2.05071 -0.0804,0.84441 -0.28147,1.36714 -0.20105,0.52273 -0.48252,0.76399 -0.28147,0.24126 -0.64336,0.24126 -0.60315,0 -1.52798,-0.68357 -0.92483,-0.72378 -2.4126,-1.56819 -1.44755,-0.88462 -3.49826,-1.56819 -2.0105,-0.72378 -4.8252,-0.72378 -3.09616,0 -5.54897,1.28672 -2.4126,1.24651 -4.14163,3.6189 -1.68882,2.33218 -2.57344,5.6696 -0.88461,3.33743 -0.88461,7.51927 0,4.58393 0.92482,7.96157 0.96504,3.33742 2.69407,5.50876 1.76924,2.17134 4.22205,3.25701 2.49302,1.04546 5.58918,1.04546 2.8147,0 4.86541,-0.64336 2.05071,-0.68357 3.49826,-1.48777 1.48777,-0.8042 2.4126,-1.44756 0.96504,-0.64336 1.48777,-0.64336 0.4021,0 0.64336,0.16084 0.24126,0.16084 0.4021,0.64336 0.16084,0.48252 0.24126,1.36714 0.0804,0.84441 0.0804,2.29197 z"
           id="path895" /><path
           d="m 248.89898,-353.66267 q 0,4.58393 -1.2063,8.36367 -1.2063,3.77974 -3.65911,6.51401 -2.4528,2.73428 -6.15212,4.22205 -3.69932,1.48777 -8.64514,1.48777 -4.78499,0 -8.32346,-1.32693 -3.53848,-1.32693 -5.87066,-3.86016 -2.33217,-2.53322 -3.45805,-6.23254 -1.12588,-3.69932 -1.12588,-8.44409 0,-4.58394 1.2063,-8.36367 1.24651,-3.81995 3.69931,-6.51402 2.45281,-2.73427 6.11192,-4.22204 3.69931,-1.48777 8.64514,-1.48777 4.82519,0 8.36367,1.32693 3.53848,1.28672 5.83044,3.81994 2.33218,2.53323 3.45806,6.23255 1.12588,3.69931 1.12588,8.4843 z m -10.41438,0.4021 q 0,-2.65386 -0.44231,-4.86541 -0.4021,-2.25175 -1.40735,-3.90036 -1.00525,-1.64861 -2.69407,-2.57344 -1.6486,-0.92483 -4.18183,-0.92483 -2.25176,0 -3.94058,0.84441 -1.68882,0.8042 -2.77448,2.4126 -1.08567,1.56819 -1.64861,3.81994 -0.52273,2.21155 -0.52273,5.06646 0,2.65386 0.44231,4.90561 0.44231,2.21155 1.40735,3.86016 1.00524,1.64861 2.69406,2.57344 1.68882,0.88462 4.18184,0.88462 2.29197,0 3.98079,-0.8042 1.68881,-0.84441 2.77448,-2.4126 1.08567,-1.56819 1.6084,-3.77974 0.52273,-2.25175 0.52273,-5.10666 z"
           id="path897" /><path
           d="m 267.06681,-335.36714 q 0,0.4021 -0.24126,0.72378 -0.24126,0.28147 -0.84441,0.48252 -0.56294,0.20105 -1.52798,0.28147 -0.96503,0.12063 -2.4528,0.12063 -1.48777,0 -2.45281,-0.12063 -0.96504,-0.0804 -1.56819,-0.28147 -0.56294,-0.20105 -0.8042,-0.48252 -0.24126,-0.32168 -0.24126,-0.72378 v -52.8761 q 0,-0.4021 0.24126,-0.72378 0.24126,-0.32168 0.8042,-0.52273 0.60315,-0.24125 1.56819,-0.36188 0.96504,-0.12063 2.45281,-0.12063 1.48777,0 2.4528,0.12063 0.96504,0.12063 1.52798,0.36188 0.60315,0.20105 0.84441,0.52273 0.24126,0.32168 0.24126,0.72378 z"
           id="path899" /><path
           d="m 298.42286,-338.90562 q 0,1.76924 -0.24126,2.73428 -0.20105,0.92483 -0.56294,1.32693 -0.36189,0.36189 -1.08566,0.68357 -0.68357,0.28147 -1.64861,0.48252 -0.92483,0.24126 -2.05071,0.36189 -1.08567,0.12063 -2.21155,0.12063 -3.01575,0 -5.22729,-0.76399 -2.21155,-0.76399 -3.65911,-2.33218 -1.44756,-1.6084 -2.13113,-4.02099 -0.68357,-2.4126 -0.68357,-5.70982 v -18.37595 h -4.30246 q -0.76399,0 -1.16609,-0.92483 -0.4021,-0.96504 -0.4021,-3.17659 0,-1.16608 0.0804,-1.97028 0.12063,-0.8042 0.32168,-1.24651 0.20105,-0.48252 0.48252,-0.68357 0.32168,-0.20105 0.72378,-0.20105 h 4.26225 v -8.00178 q 0,-0.4021 0.20105,-0.72378 0.24126,-0.32168 0.8042,-0.52273 0.60315,-0.24126 1.56819,-0.32168 1.00525,-0.12063 2.45281,-0.12063 1.48777,0 2.45281,0.12063 1.00524,0.0804 1.56818,0.32168 0.56294,0.20105 0.8042,0.52273 0.24126,0.32168 0.24126,0.72378 v 8.00178 h 7.80073 q 0.4021,0 0.68357,0.20105 0.32168,0.20105 0.52273,0.68357 0.20105,0.44231 0.28147,1.24651 0.12063,0.8042 0.12063,1.97028 0,2.21155 -0.4021,3.17659 -0.4021,0.92483 -1.16609,0.92483 h -7.84094 v 16.84797 q 0,2.93533 0.92483,4.4231 0.92483,1.44756 3.29722,1.44756 0.8042,0 1.44756,-0.12063 0.64336,-0.16084 1.12588,-0.32168 0.52273,-0.20105 0.84441,-0.32168 0.36188,-0.16084 0.64335,-0.16084 0.24126,0 0.44231,0.16084 0.24126,0.12063 0.36189,0.56294 0.12063,0.4021 0.20105,1.12588 0.12063,0.72378 0.12063,1.84965 z"
           id="path901" /><path
           d="m 328.80775,-367.897 q 0,1.44756 -0.0804,2.37239 -0.0804,0.92483 -0.24126,1.44756 -0.16084,0.52273 -0.44231,0.72378 -0.24126,0.20105 -0.64336,0.20105 -0.32168,0 -0.72378,-0.12063 -0.4021,-0.16084 -0.92483,-0.32168 -0.48252,-0.16084 -1.08566,-0.28147 -0.60315,-0.16084 -1.32693,-0.16084 -0.84441,0 -1.68882,0.36189 -0.84441,0.32168 -1.76924,1.04546 -0.88462,0.72378 -1.88987,1.93008 -0.96504,1.2063 -2.09092,2.97553 v 22.35674 q 0,0.4021 -0.24126,0.72378 -0.24126,0.28147 -0.84441,0.48252 -0.56293,0.20105 -1.52797,0.28147 -0.96504,0.12063 -2.45281,0.12063 -1.48777,0 -2.45281,-0.12063 -0.96504,-0.0804 -1.56819,-0.28147 -0.56294,-0.20105 -0.8042,-0.48252 -0.24126,-0.32168 -0.24126,-0.72378 v -35.86728 q 0,-0.4021 0.20105,-0.68357 0.20105,-0.32168 0.72378,-0.52273 0.52273,-0.20105 1.32693,-0.28147 0.84441,-0.12063 2.09092,-0.12063 1.28672,0 2.13113,0.12063 0.84441,0.0804 1.28672,0.28147 0.48252,0.20105 0.68357,0.52273 0.20105,0.28147 0.20105,0.68357 v 4.4633 q 1.40734,-2.0105 2.65385,-3.29721 1.24651,-1.32693 2.37239,-2.09092 1.12588,-0.76399 2.25176,-1.04546 1.12588,-0.32168 2.25176,-0.32168 0.52273,0 1.12587,0.0804 0.60315,0.0402 1.24651,0.20105 0.64336,0.12063 1.12588,0.32168 0.48252,0.16084 0.68357,0.36189 0.24126,0.20105 0.32168,0.44231 0.12063,0.24126 0.20105,0.68357 0.0804,0.4021 0.12063,1.24651 0.0402,0.8444 0.0402,2.29196 z"
           id="path903" /><path
           d="m 363.74956,-335.24651 q 0,0.56294 -0.4021,0.88462 -0.4021,0.32168 -1.28672,0.44231 -0.84441,0.16084 -2.53323,0.16084 -1.80944,0 -2.65385,-0.16084 -0.8042,-0.12063 -1.16609,-0.44231 -0.32168,-0.32168 -0.32168,-0.88462 v -2.85491 q -2.21155,2.37239 -5.06646,3.69932 -2.81469,1.32693 -6.27275,1.32693 -2.85491,0 -5.26751,-0.76399 -2.37238,-0.72378 -4.14162,-2.17134 -1.72903,-1.48777 -2.69407,-3.6591 -0.96504,-2.17134 -0.96504,-5.06646 0,-3.13638 1.2063,-5.42834 1.24651,-2.33218 3.65911,-3.81995 2.45281,-1.52798 6.0717,-2.25176 3.6189,-0.72378 8.40388,-0.72378 h 3.49827 v -2.17134 q 0,-1.68881 -0.36189,-2.93532 -0.32168,-1.28672 -1.12588,-2.13113 -0.76399,-0.84441 -2.09092,-1.24651 -1.28672,-0.4021 -3.21679,-0.4021 -2.53323,0 -4.54373,0.56294 -1.97029,0.56294 -3.49827,1.24651 -1.52797,0.68357 -2.57343,1.24651 -1.00525,0.56294 -1.64861,0.56294 -0.44231,0 -0.8042,-0.28147 -0.32168,-0.28147 -0.56294,-0.8042 -0.20105,-0.52273 -0.32168,-1.28672 -0.12063,-0.76399 -0.12063,-1.68882 0,-1.24651 0.20105,-1.97029 0.20105,-0.72378 0.76399,-1.28671 0.56294,-0.60315 1.97029,-1.28672 1.40735,-0.72378 3.29721,-1.32693 1.88987,-0.60315 4.10142,-0.96504 2.25176,-0.4021 4.62415,-0.4021 4.22204,0 7.19758,0.84441 3.01575,0.8042 4.94582,2.53323 1.93008,1.68881 2.8147,4.38288 0.88462,2.69407 0.88462,6.39339 z m -9.93186,-15.3602 h -3.86016 q -2.4528,0 -4.18183,0.36189 -1.72903,0.36189 -2.8147,1.08567 -1.08567,0.72377 -1.6084,1.76923 -0.48252,1.00525 -0.48252,2.33218 0,2.25176 1.40735,3.53848 1.44756,1.28672 3.98079,1.28672 2.13113,0 3.90036,-1.08567 1.80945,-1.08567 3.65911,-3.17659 z"
           id="path905" /><path
           d="m 401.01262,-341.07695 q 0,1.04546 -0.0804,1.76924 -0.0402,0.68356 -0.16084,1.16608 -0.0804,0.48252 -0.24126,0.8042 -0.12063,0.28147 -0.60315,0.76399 -0.48252,0.44231 -1.64861,1.12588 -1.16608,0.64336 -2.65385,1.16609 -1.48777,0.52273 -3.25701,0.84441 -1.72903,0.32168 -3.57869,0.32168 -4.14162,0 -7.35842,-1.28672 -3.17659,-1.28672 -5.34792,-3.77974 -2.17134,-2.53322 -3.29722,-6.15212 -1.08567,-3.6189 -1.08567,-8.28325 0,-5.38814 1.32693,-9.2885 1.36714,-3.94058 3.77974,-6.51402 2.41259,-2.57343 5.70981,-3.81994 3.29722,-1.24651 7.23779,-1.24651 1.6084,0 3.13638,0.28147 1.56819,0.28147 2.89512,0.76399 1.36714,0.48252 2.41259,1.08567 1.08567,0.60315 1.52798,1.04546 0.44231,0.44231 0.60315,0.76399 0.20105,0.28146 0.28147,0.76398 0.12063,0.48252 0.16084,1.2063 0.0804,0.68357 0.0804,1.68882 0,2.33218 -0.4021,3.29722 -0.4021,0.92483 -1.04546,0.92483 -0.68357,0 -1.44756,-0.56294 -0.76398,-0.56294 -1.80944,-1.24651 -1.04546,-0.68357 -2.49302,-1.24651 -1.44756,-0.56294 -3.45806,-0.56294 -3.94057,0 -6.03149,3.05596 -2.09092,3.01574 -2.09092,8.8864 0,2.89512 0.52273,5.10666 0.52273,2.21155 1.52798,3.69932 1.04546,1.48777 2.57344,2.25176 1.56818,0.72378 3.61889,0.72378 2.09092,0 3.57869,-0.60315 1.52798,-0.64336 2.65386,-1.40735 1.12587,-0.76399 1.88986,-1.36714 0.76399,-0.64336 1.28672,-0.64336 0.36189,0 0.60315,0.20105 0.24126,0.20105 0.36189,0.76399 0.16084,0.52273 0.24126,1.36714 0.0804,0.84441 0.0804,2.17134 z"
           id="path907" /><path
           d="m 441.62726,-335.32693 q 0,0.4021 -0.24126,0.72378 -0.20105,0.28147 -0.8042,0.48252 -0.56294,0.16084 -1.56819,0.24126 -1.00525,0.12063 -2.61365,0.12063 -1.64861,0 -2.69406,-0.0804 -1.00525,-0.0804 -1.68882,-0.24126 -0.64336,-0.20105 -1.00525,-0.52273 -0.36189,-0.32168 -0.64336,-0.84441 l -11.94236,-18.89868 v 18.9791 q 0,0.4021 -0.24126,0.72378 -0.24126,0.28147 -0.84441,0.48252 -0.56294,0.20105 -1.52798,0.28147 -0.96504,0.12063 -2.4528,0.12063 -1.48777,0 -2.45281,-0.12063 -0.96504,-0.0804 -1.56819,-0.28147 -0.56294,-0.20105 -0.8042,-0.48252 -0.24126,-0.32168 -0.24126,-0.72378 v -52.8761 q 0,-0.4021 0.24126,-0.72378 0.24126,-0.32168 0.8042,-0.52273 0.60315,-0.24125 1.56819,-0.36188 0.96504,-0.12063 2.45281,-0.12063 1.48776,0 2.4528,0.12063 0.96504,0.12063 1.52798,0.36188 0.60315,0.20105 0.84441,0.52273 0.24126,0.32168 0.24126,0.72378 v 31.4844 l 10.61543,-14.27453 q 0.32168,-0.48252 0.72378,-0.84441 0.4021,-0.36189 1.04546,-0.56294 0.68357,-0.20105 1.64861,-0.28147 1.00525,-0.12063 2.53322,-0.12063 1.48777,0 2.49302,0.12063 1.04546,0.0804 1.64861,0.28147 0.64336,0.20105 0.88462,0.52273 0.24126,0.28147 0.24126,0.72378 0,0.60315 -0.32168,1.28672 -0.28147,0.68356 -0.88462,1.44755 l -10.4948,11.90215 12.14341,18.77805 q 0.48252,0.8042 0.68357,1.40735 0.24126,0.56294 0.24126,1.04546 z"
           id="path909" /></g></g></g></svg>
